<svg xmlns="http://www.w3.org/2000/svg" width="24" height="24" viewBox="0 0 24 24">
    <g fill="none" fill-rule="evenodd">
        <g>
            <path d="M0 0H24V24H0z"/>
            <path fill="#6F7579" fill-rule="nonzero" d="M16.26 3c2.11 0 3.73.36 4.05.69.79.79 1.82 9.26-2.77 13.85-2.71 2.71-6.77 3.46-9.8 3.46-2.11 0-3.73-.36-4.05-.69-.79-.79-1.82-9.26 2.77-13.85C9.17 3.75 13.23 3 16.26 3zM5.04 14.94c-.13 1.62-.01 3.04.17 3.83.51.11 1.39.23 2.53.23.34 0 .79-.01 1.31-.05zm7.48-9.49c-1.59.39-3.32 1.11-4.64 2.43-1.29 1.28-2.03 2.97-2.45 4.65l6.04 6.04c1.6-.39 3.33-1.11 4.66-2.44 1.27-1.28 2.02-2.96 2.44-4.63zM14.1 8.5l1.4 1.4-5.6 5.6-1.4-1.4 5.6-5.6zM16.26 5c-.35 0-.81.01-1.33.06l4.03 4.03c.13-1.64.01-3.07-.17-3.86-.51-.11-1.39-.23-2.53-.23z"/>
        </g>
    </g>
</svg>
